<svg width="59" height="59" viewBox="0 0 59 59" fill="none" xmlns="http://www.w3.org/2000/svg">
<g id="perm_identity_24px">
<path id="Vector" fill-rule="evenodd" clip-rule="evenodd" d="M39.3333 19.6666C39.3333 25.0996 34.9329 29.5 29.5 29.5C24.0672 29.5 19.6666 25.0996 19.6666 19.6666C19.6666 14.2337 24.0672 9.83331 29.5 9.83331C34.9329 9.83331 39.3333 14.2337 39.3333 19.6666ZM34.4166 19.6666C34.4166 16.9625 32.2041 14.75 29.5 14.75C26.7958 14.75 24.5833 16.9625 24.5833 19.6666C24.5833 22.3708 26.7958 24.5833 29.5 24.5833C32.2041 24.5833 34.4166 22.3708 34.4166 19.6666ZM29.5 31.9583C22.9361 31.9583 9.83331 35.2525 9.83331 41.7916V49.1666H49.1666V41.7916C49.1666 35.2525 36.0637 31.9583 29.5 31.9583ZM14.75 41.8162V44.25H44.25V41.7916C43.7583 40.0462 36.1375 36.875 29.5 36.875C22.8626 36.875 15.2415 40.0462 14.75 41.8162Z" fill="black"/>
</g>
</svg>
