<svg height="30" viewBox="0 0 158 158" fill="none" xmlns="http://www.w3.org/2000/svg">
<path d="M154.45 133.67L116.66 95.88C122.551 86.2107 125.659 75.1026 125.64 63.78C125.64 29.61 96.03 0.010001 61.86 0.010001C53.7361 0.00868744 45.6914 1.60785 38.1856 4.71614C30.6799 7.82443 23.8599 12.381 18.1154 18.1254C12.371 23.8699 7.81443 30.6899 4.70614 38.1956C1.59785 45.7014 -0.00131279 53.7461 8.08612e-07 61.87C8.08612e-07 96.03 29.61 125.64 63.77 125.64C74.7195 125.65 85.4731 122.736 94.92 117.2L132.91 155.21C134.697 156.992 137.117 157.993 139.64 157.993C142.163 157.993 144.583 156.992 146.37 155.21L155.8 145.78C159.51 142.07 158.16 137.38 154.45 133.67ZM19.04 61.87C19.0387 56.246 20.1453 50.6767 22.2966 45.4804C24.4479 40.2841 27.6018 35.5625 31.5782 31.5852C35.5545 27.608 40.2754 24.453 45.4712 22.3004C50.667 20.1479 56.236 19.04 61.86 19.04C85.52 19.04 106.6 40.11 106.6 63.78C106.597 75.1384 102.084 86.0308 94.0525 94.0625C86.0208 102.094 75.1284 106.607 63.77 106.61C40.11 106.6 19.04 85.52 19.04 61.87Z" fill="white"/>
</svg>
